<?xml version="1.0" encoding="UTF-8"?>
<!DOCTYPE svg PUBLIC "-//W3C//DTD SVG 1.1//EN" "http://www.w3.org/Graphics/SVG/1.1/DTD/svg11.dtd">
<!-- Creator: CorelDRAW 2021 (64-Bit) -->
<svg xmlns="http://www.w3.org/2000/svg" xml:space="preserve" width="192px" height="57px" version="1.1" style="shape-rendering:geometricPrecision; text-rendering:geometricPrecision; image-rendering:optimizeQuality; fill-rule:evenodd; clip-rule:evenodd"
viewBox="0 0 192 57"
 xmlns:xlink="http://www.w3.org/1999/xlink"
 xmlns:xodm="http://www.corel.com/coreldraw/odm/2003">
 <defs>
  <style type="text/css">
   <![CDATA[
    .fil0 {fill:white;fill-rule:nonzero}
   ]]>
  </style>
 </defs>
 <g id="Layer_x0020_1">
  <metadata id="CorelCorpID_0Corel-Layer"/>
  <g id="_1805673950688">
   <g>
    <g>
     <g>
      <g>
       <path class="fil0" d="M21.75 32.89c0.29,1.46 0.96,2.6 2.02,3.4 1.06,0.81 2.36,1.21 3.91,1.21 2.16,0 3.73,-0.79 4.72,-2.39l2.42 1.38c-1.6,2.47 -4,3.7 -7.2,3.7 -2.6,0 -4.72,-0.81 -6.34,-2.44 -1.63,-1.63 -2.44,-3.68 -2.44,-6.17 0,-2.47 0.8,-4.52 2.39,-6.16 1.59,-1.64 3.66,-2.45 6.19,-2.45 2.4,0 4.36,0.84 5.88,2.53 1.51,1.69 2.27,3.73 2.27,6.11 0,0.41 -0.03,0.84 -0.1,1.28l-13.72 0zm5.67 -7.24l0 0c-1.53,0 -2.8,0.43 -3.8,1.29 -1.01,0.87 -1.63,2.02 -1.87,3.46l10.94 0c-0.24,-1.55 -0.85,-2.73 -1.83,-3.54 -0.99,-0.81 -2.13,-1.21 -3.44,-1.21z"/>
       <path class="fil0" d="M56.84 22.97c1.83,0 3.32,0.59 4.45,1.78 1.14,1.19 1.7,2.8 1.7,4.83l0 10.18 -2.85 0 0 -10.08c0,-1.27 -0.32,-2.25 -0.98,-2.95 -0.65,-0.7 -1.53,-1.05 -2.62,-1.05 -1.22,0 -2.2,0.41 -2.93,1.23 -0.73,0.82 -1.1,2.07 -1.1,3.75l0 9.1 -2.84 0 0 -10.08c0,-1.27 -0.32,-2.25 -0.94,-2.95 -0.62,-0.7 -1.47,-1.05 -2.54,-1.05 -1.2,0 -2.2,0.42 -2.99,1.25 -0.8,0.83 -1.2,2.07 -1.2,3.73l0 9.1 -2.85 0 0 -16.37 2.85 0 0 2.19c1.12,-1.74 2.74,-2.61 4.88,-2.61 2.21,0 3.81,0.92 4.82,2.78 1.13,-1.86 2.85,-2.78 5.14,-2.78z"/>
       <path class="fil0" d="M80.88 23.39l2.85 0 0 16.37 -2.85 0 0 -2.81c-1.42,2.16 -3.48,3.24 -6.19,3.24 -2.29,0 -4.25,-0.84 -5.86,-2.51 -1.62,-1.67 -2.42,-3.7 -2.42,-6.1 0,-2.4 0.8,-4.44 2.42,-6.11 1.61,-1.67 3.57,-2.5 5.86,-2.5 2.71,0 4.77,1.08 6.19,3.24l0 -2.82zm-5.83 14.05l0 0c1.66,0 3.05,-0.56 4.16,-1.69 1.11,-1.12 1.67,-2.51 1.67,-4.17 0,-1.66 -0.56,-3.05 -1.67,-4.18 -1.11,-1.12 -2.5,-1.68 -4.16,-1.68 -1.64,0 -3.01,0.56 -4.13,1.68 -1.11,1.13 -1.67,2.52 -1.67,4.18 0,1.66 0.56,3.05 1.67,4.17 1.12,1.13 2.49,1.69 4.13,1.69z"/>
       <path class="fil0" d="M91.18 26.14c0.93,-2.03 2.64,-3.04 5.1,-3.04l0 2.98c-1.39,-0.07 -2.59,0.3 -3.6,1.11 -1,0.81 -1.5,2.11 -1.5,3.9l0 8.67 -2.85 0 0 -16.37 2.85 0 0 2.75z"/>
       <polygon class="fil0" points="113,39.76 109.46,39.76 102,32.01 102,39.76 99.15,39.76 99.15,16.84 102,16.84 102,30.6 109.07,23.39 112.74,23.39 104.91,31.31 "/>
       <path class="fil0" d="M116.71 32.89c0.28,1.46 0.96,2.6 2.01,3.4 1.06,0.81 2.37,1.21 3.92,1.21 2.16,0 3.73,-0.79 4.71,-2.39l2.43 1.38c-1.6,2.47 -4,3.7 -7.21,3.7 -2.6,0 -4.71,-0.81 -6.34,-2.44 -1.62,-1.63 -2.43,-3.68 -2.43,-6.17 0,-2.47 0.79,-4.52 2.39,-6.16 1.59,-1.64 3.65,-2.45 6.19,-2.45 2.4,0 4.36,0.84 5.87,2.53 1.52,1.69 2.28,3.73 2.28,6.11 0,0.41 -0.03,0.84 -0.1,1.28l-13.72 0zm5.67 -7.24l0 0c-1.53,0 -2.8,0.43 -3.8,1.29 -1.01,0.87 -1.63,2.02 -1.87,3.46l10.94 0c-0.24,-1.55 -0.85,-2.73 -1.84,-3.54 -0.98,-0.81 -2.12,-1.21 -3.43,-1.21z"/>
       <path class="fil0" d="M142.63 26.14l-4.36 0 0 8.88c0,0.8 0.16,1.38 0.48,1.72 0.31,0.33 0.8,0.51 1.45,0.52 0.66,0.01 1.47,-0.01 2.43,-0.05l0 2.55c-2.49,0.33 -4.32,0.13 -5.47,-0.6 -1.16,-0.73 -1.74,-2.11 -1.74,-4.14l0 -8.88 -3.24 0 0 -2.75 3.24 0 0 -3.73 2.85 -2.85 0 6.58 4.36 0 0 2.75z"/>
       <path class="fil0" d="M147.61 32.89c0.28,1.46 0.95,2.6 2.01,3.4 1.06,0.81 2.37,1.21 3.92,1.21 2.16,0 3.73,-0.79 4.71,-2.39l2.43 1.38c-1.6,2.47 -4,3.7 -7.21,3.7 -2.6,0 -4.71,-0.81 -6.33,-2.44 -1.63,-1.63 -2.44,-3.68 -2.44,-6.17 0,-2.47 0.79,-4.52 2.39,-6.16 1.59,-1.64 3.65,-2.45 6.18,-2.45 2.41,0 4.37,0.84 5.88,2.53 1.52,1.69 2.28,3.73 2.28,6.11 0,0.41 -0.03,0.84 -0.1,1.28l-13.72 0zm5.66 -7.24l0 0c-1.52,0 -2.79,0.43 -3.79,1.29 -1.01,0.87 -1.63,2.02 -1.87,3.46l10.94 0c-0.24,-1.55 -0.85,-2.73 -1.84,-3.54 -0.98,-0.81 -2.13,-1.21 -3.44,-1.21z"/>
       <path class="fil0" d="M178.56 16.84l2.85 0 0 22.92 -2.85 0 0 -2.81c-1.42,2.16 -3.48,3.24 -6.19,3.24 -2.29,0 -4.25,-0.84 -5.86,-2.51 -1.62,-1.67 -2.43,-3.7 -2.43,-6.1 0,-2.4 0.81,-4.44 2.43,-6.11 1.61,-1.67 3.57,-2.5 5.86,-2.5 2.71,0 4.77,1.08 6.19,3.24l0 -9.37zm-5.83 20.6l0 0c1.66,0 3.04,-0.56 4.16,-1.69 1.11,-1.12 1.67,-2.51 1.67,-4.17 0,-1.66 -0.56,-3.05 -1.67,-4.18 -1.12,-1.12 -2.5,-1.68 -4.16,-1.68 -1.64,0 -3.01,0.56 -4.13,1.68 -1.11,1.13 -1.67,2.52 -1.67,4.18 0,1.66 0.56,3.05 1.67,4.17 1.12,1.13 2.49,1.69 4.13,1.69z"/>
      </g>
     </g>
     <g>
      <g>
       <path class="fil0" d="M189.31 36.87c0.48,-0.15 0.69,-0.52 0.69,-0.98 0,-0.55 -0.39,-1.08 -1.26,-1.08l-1.01 0 0 3.42 0.44 0 0 -1.28 0.7 0 0.72 1.28 0.49 0 -0.77 -1.36zm-0.55 -0.34l0 0 -0.59 0 0 -1.29 0.59 0c0.54,0 0.8,0.26 0.8,0.65 0,0.38 -0.25,0.64 -0.8,0.64z"/>
      </g>
      <path class="fil0" d="M191.07 34.22c-0.63,-0.62 -1.4,-0.94 -2.33,-0.94 -0.91,0 -1.68,0.32 -2.31,0.94 -0.61,0.63 -0.93,1.4 -0.93,2.33 0,0.93 0.32,1.7 0.93,2.33 0.63,0.62 1.4,0.94 2.31,0.94 0.93,0 1.7,-0.32 2.33,-0.94 0.61,-0.63 0.93,-1.4 0.93,-2.33 0,-0.93 -0.32,-1.7 -0.93,-2.33zm-0.35 4.32l0 0c-0.53,0.53 -1.17,0.79 -1.98,0.79 -0.78,0 -1.43,-0.26 -1.96,-0.79 -0.53,-0.54 -0.78,-1.19 -0.78,-1.99 0,-0.8 0.25,-1.44 0.78,-1.99 0.53,-0.53 1.18,-0.79 1.96,-0.79 0.81,0 1.45,0.26 1.98,0.79 0.53,0.55 0.78,1.19 0.78,1.99 0,0.8 -0.25,1.45 -0.78,1.99z"/>
     </g>
    </g>
    <path class="fil0" d="M12.21 32.11l4.26 7.45 -3.72 0 -4.03 -6.96 -5.48 0 0 6.96 -3.24 0 0 -8.58c0,-0.89 0.74,-1.62 1.62,-1.62l7.94 0c2.01,0 3.67,-1.64 3.67,-3.67 0,-2.02 -1.66,-3.67 -3.67,-3.67l-6.32 0 0 1.62 -3.24 -3.24 3.24 -3.24 0 1.62 6.32 0c3.8,0 6.91,3.11 6.91,6.91 0,4.81 -4.26,6.42 -4.26,6.42z"/>
   </g>
  </g>
 </g>
</svg>
